<mxfile host="app.diagrams.net" agent="Mozilla/5.0 (iPad; CPU OS 18_5 like Mac OS X) AppleWebKit/605.1.15 (KHTML, like Gecko) Version/18.5 Mobile/15E148 Safari/604.1" version="28.1.0">
  <diagram name="Page-1" id="_nW0GI1sjbpuyTOkngR9">
    <mxGraphModel grid="1" page="1" gridSize="10" guides="1" tooltips="1" connect="1" arrows="1" fold="1" pageScale="1" pageWidth="850" pageHeight="1100" math="0" shadow="0">
      <root>
        <mxCell id="0" />
        <mxCell id="1" parent="0" />
        <mxCell id="4LT95gzxjA58nIMg_bPA-1" value="회원" style="rounded=0;whiteSpace=wrap;html=1;" vertex="1" parent="1">
          <mxGeometry x="290" y="430" width="160" height="80" as="geometry" />
        </mxCell>
        <mxCell id="4LT95gzxjA58nIMg_bPA-2" value="강사" style="rounded=0;whiteSpace=wrap;html=1;" vertex="1" parent="1">
          <mxGeometry x="80" y="600" width="160" height="80" as="geometry" />
        </mxCell>
        <mxCell id="4LT95gzxjA58nIMg_bPA-3" value="수강" style="rounded=0;whiteSpace=wrap;html=1;" vertex="1" parent="1">
          <mxGeometry x="290" y="600" width="160" height="80" as="geometry" />
        </mxCell>
        <mxCell id="4LT95gzxjA58nIMg_bPA-4" value="진도" style="rounded=0;whiteSpace=wrap;html=1;" vertex="1" parent="1">
          <mxGeometry x="520" y="600" width="160" height="80" as="geometry" />
        </mxCell>
        <mxCell id="4LT95gzxjA58nIMg_bPA-5" value="강의" style="rounded=0;whiteSpace=wrap;html=1;" vertex="1" parent="1">
          <mxGeometry x="290" y="780" width="160" height="80" as="geometry" />
        </mxCell>
        <mxCell id="4LT95gzxjA58nIMg_bPA-6" value="수업" style="rounded=0;whiteSpace=wrap;html=1;" vertex="1" parent="1">
          <mxGeometry x="520" y="780" width="160" height="80" as="geometry" />
        </mxCell>
        <mxCell id="4LT95gzxjA58nIMg_bPA-7" value="섹션" style="rounded=0;whiteSpace=wrap;html=1;" vertex="1" parent="1">
          <mxGeometry x="520" y="960" width="160" height="80" as="geometry" />
        </mxCell>
        <mxCell id="WYmNcias1nIB2jITv3OE-5" value="" style="endArrow=none;html=1;rounded=0;fontSize=12;startSize=8;endSize=8;edgeStyle=orthogonalEdgeStyle;" edge="1" parent="1" source="4LT95gzxjA58nIMg_bPA-2" target="4LT95gzxjA58nIMg_bPA-1">
          <mxGeometry width="50" height="50" relative="1" as="geometry">
            <mxPoint x="150" y="640" as="sourcePoint" />
            <mxPoint x="280" y="330" as="targetPoint" />
            <Array as="points">
              <mxPoint x="160" y="470" />
            </Array>
          </mxGeometry>
        </mxCell>
        <mxCell id="WYmNcias1nIB2jITv3OE-6" value="" style="endArrow=none;html=1;rounded=0;fontSize=12;startSize=8;endSize=8;edgeStyle=orthogonalEdgeStyle;" edge="1" parent="1" source="4LT95gzxjA58nIMg_bPA-2" target="4LT95gzxjA58nIMg_bPA-5">
          <mxGeometry width="50" height="50" relative="1" as="geometry">
            <mxPoint x="180" y="780" as="sourcePoint" />
            <mxPoint x="230" y="730" as="targetPoint" />
            <Array as="points">
              <mxPoint x="160" y="820" />
            </Array>
          </mxGeometry>
        </mxCell>
        <mxCell id="WYmNcias1nIB2jITv3OE-7" value="" style="endArrow=none;html=1;rounded=0;fontSize=12;startSize=8;endSize=8;edgeStyle=orthogonalEdgeStyle;" edge="1" parent="1" source="4LT95gzxjA58nIMg_bPA-5" target="4LT95gzxjA58nIMg_bPA-7">
          <mxGeometry width="50" height="50" relative="1" as="geometry">
            <mxPoint x="310" y="630" as="sourcePoint" />
            <mxPoint x="360" y="580" as="targetPoint" />
            <Array as="points">
              <mxPoint x="360" y="1000" />
            </Array>
          </mxGeometry>
        </mxCell>
        <mxCell id="WYmNcias1nIB2jITv3OE-8" value="" style="endArrow=none;html=1;rounded=0;fontSize=12;startSize=8;endSize=8;curved=1;" edge="1" parent="1" source="4LT95gzxjA58nIMg_bPA-5" target="4LT95gzxjA58nIMg_bPA-6">
          <mxGeometry width="50" height="50" relative="1" as="geometry">
            <mxPoint x="420" y="750" as="sourcePoint" />
            <mxPoint x="470" y="700" as="targetPoint" />
          </mxGeometry>
        </mxCell>
        <mxCell id="WYmNcias1nIB2jITv3OE-9" value="" style="endArrow=none;html=1;rounded=0;fontSize=12;startSize=8;endSize=8;curved=1;" edge="1" parent="1" source="4LT95gzxjA58nIMg_bPA-6" target="4LT95gzxjA58nIMg_bPA-7">
          <mxGeometry width="50" height="50" relative="1" as="geometry">
            <mxPoint x="420" y="750" as="sourcePoint" />
            <mxPoint x="470" y="700" as="targetPoint" />
          </mxGeometry>
        </mxCell>
        <mxCell id="WYmNcias1nIB2jITv3OE-11" value="" style="endArrow=classic;html=1;rounded=0;fontSize=12;startSize=8;endSize=8;curved=1;" edge="1" parent="1" source="4LT95gzxjA58nIMg_bPA-3" target="4LT95gzxjA58nIMg_bPA-5">
          <mxGeometry width="50" height="50" relative="1" as="geometry">
            <mxPoint x="420" y="750" as="sourcePoint" />
            <mxPoint x="470" y="700" as="targetPoint" />
          </mxGeometry>
        </mxCell>
        <mxCell id="WYmNcias1nIB2jITv3OE-12" value="" style="endArrow=classic;html=1;rounded=0;fontSize=12;startSize=8;endSize=8;curved=1;" edge="1" parent="1" source="4LT95gzxjA58nIMg_bPA-3" target="4LT95gzxjA58nIMg_bPA-1">
          <mxGeometry width="50" height="50" relative="1" as="geometry">
            <mxPoint x="420" y="750" as="sourcePoint" />
            <mxPoint x="470" y="700" as="targetPoint" />
          </mxGeometry>
        </mxCell>
        <mxCell id="WYmNcias1nIB2jITv3OE-13" value="1" style="text;html=1;align=center;verticalAlign=middle;whiteSpace=wrap;rounded=0;" vertex="1" parent="1">
          <mxGeometry x="270" y="440" width="20" height="30" as="geometry" />
        </mxCell>
        <mxCell id="WYmNcias1nIB2jITv3OE-14" value="0..1" style="text;html=1;align=center;verticalAlign=middle;whiteSpace=wrap;rounded=0;" vertex="1" parent="1">
          <mxGeometry x="130" y="570" width="30" height="30" as="geometry" />
        </mxCell>
        <mxCell id="WYmNcias1nIB2jITv3OE-15" value="1" style="text;html=1;align=center;verticalAlign=middle;whiteSpace=wrap;rounded=0;" vertex="1" parent="1">
          <mxGeometry x="130" y="680" width="30" height="30" as="geometry" />
        </mxCell>
        <mxCell id="WYmNcias1nIB2jITv3OE-16" value="0..*" style="text;html=1;align=center;verticalAlign=middle;whiteSpace=wrap;rounded=0;" vertex="1" parent="1">
          <mxGeometry x="260" y="790" width="30" height="30" as="geometry" />
        </mxCell>
        <mxCell id="WYmNcias1nIB2jITv3OE-17" value="1" style="text;html=1;align=center;verticalAlign=middle;whiteSpace=wrap;rounded=0;" vertex="1" parent="1">
          <mxGeometry x="340" y="510" width="30" height="30" as="geometry" />
        </mxCell>
        <mxCell id="WYmNcias1nIB2jITv3OE-18" value="0..*" style="text;html=1;align=center;verticalAlign=middle;whiteSpace=wrap;rounded=0;" vertex="1" parent="1">
          <mxGeometry x="340" y="570" width="30" height="30" as="geometry" />
        </mxCell>
        <mxCell id="WYmNcias1nIB2jITv3OE-19" value="1" style="text;html=1;align=center;verticalAlign=middle;whiteSpace=wrap;rounded=0;" vertex="1" parent="1">
          <mxGeometry x="340" y="750" width="30" height="30" as="geometry" />
        </mxCell>
        <mxCell id="WYmNcias1nIB2jITv3OE-20" value="0..*" style="text;html=1;align=center;verticalAlign=middle;whiteSpace=wrap;rounded=0;" vertex="1" parent="1">
          <mxGeometry x="340" y="680" width="30" height="30" as="geometry" />
        </mxCell>
        <mxCell id="WYmNcias1nIB2jITv3OE-23" value="" style="endArrow=none;html=1;rounded=0;fontSize=12;startSize=8;endSize=8;curved=1;" edge="1" parent="1" source="4LT95gzxjA58nIMg_bPA-3" target="4LT95gzxjA58nIMg_bPA-4">
          <mxGeometry width="50" height="50" relative="1" as="geometry">
            <mxPoint x="380" y="700" as="sourcePoint" />
            <mxPoint x="430" y="650" as="targetPoint" />
          </mxGeometry>
        </mxCell>
        <mxCell id="WYmNcias1nIB2jITv3OE-24" value="1" style="text;html=1;align=center;verticalAlign=middle;whiteSpace=wrap;rounded=0;" vertex="1" parent="1">
          <mxGeometry x="450" y="610" width="30" height="30" as="geometry" />
        </mxCell>
        <mxCell id="WYmNcias1nIB2jITv3OE-25" value="1" style="text;html=1;align=center;verticalAlign=middle;whiteSpace=wrap;rounded=0;" vertex="1" parent="1">
          <mxGeometry x="490" y="640" width="30" height="30" as="geometry" />
        </mxCell>
        <mxCell id="WYmNcias1nIB2jITv3OE-26" value="1" style="text;html=1;align=center;verticalAlign=middle;whiteSpace=wrap;rounded=0;" vertex="1" parent="1">
          <mxGeometry x="450" y="790" width="30" height="30" as="geometry" />
        </mxCell>
        <mxCell id="WYmNcias1nIB2jITv3OE-27" value="0..*" style="text;html=1;align=center;verticalAlign=middle;whiteSpace=wrap;rounded=0;" vertex="1" parent="1">
          <mxGeometry x="490" y="790" width="30" height="30" as="geometry" />
        </mxCell>
        <mxCell id="WYmNcias1nIB2jITv3OE-28" value="0..*" style="text;html=1;align=center;verticalAlign=middle;whiteSpace=wrap;rounded=0;" vertex="1" parent="1">
          <mxGeometry x="490" y="970" width="30" height="30" as="geometry" />
        </mxCell>
        <mxCell id="WYmNcias1nIB2jITv3OE-30" value="1" style="text;html=1;align=center;verticalAlign=middle;whiteSpace=wrap;rounded=0;" vertex="1" parent="1">
          <mxGeometry x="360" y="860" width="30" height="30" as="geometry" />
        </mxCell>
        <mxCell id="WYmNcias1nIB2jITv3OE-31" value="1" style="text;html=1;align=center;verticalAlign=middle;whiteSpace=wrap;rounded=0;" vertex="1" parent="1">
          <mxGeometry x="570" y="930" width="30" height="30" as="geometry" />
        </mxCell>
        <mxCell id="WYmNcias1nIB2jITv3OE-33" value="0..*" style="text;html=1;align=center;verticalAlign=middle;whiteSpace=wrap;rounded=0;" vertex="1" parent="1">
          <mxGeometry x="570" y="860" width="30" height="30" as="geometry" />
        </mxCell>
      </root>
    </mxGraphModel>
  </diagram>
</mxfile>
